<svg width="16" height="16" viewBox="0 0 16 16" fill="none" xmlns="http://www.w3.org/2000/svg">
<path d="M2.33301 2.83301V13.6663H3.33301V4.33301H13.1517C13.2851 4.32821 13.4114 4.27185 13.504 4.17579C13.5967 4.07973 13.6485 3.95147 13.6485 3.81801C13.6485 3.68454 13.5967 3.55628 13.504 3.46022C13.4114 3.36417 13.2851 3.30781 13.1517 3.30301H3.33301V2.80301C3.33301 2.67836 3.28349 2.55881 3.19535 2.47067C3.10721 2.38253 2.98766 2.33301 2.86301 2.33301H2.83301C2.7004 2.33301 2.57322 2.38569 2.47945 2.47945C2.38569 2.57322 2.33301 2.7004 2.33301 2.83301ZM14.6663 3.81834C14.6665 4.06618 14.6058 4.31026 14.4896 4.52915C14.3733 4.74803 14.2051 4.93502 13.9997 5.07367V10.1663C13.9997 10.8294 13.7363 11.4653 13.2674 11.9341C12.7986 12.403 12.1627 12.6663 11.4997 12.6663H5.83301C5.29193 12.6673 4.76529 12.4918 4.33301 12.1663V13.833C4.33301 14.293 3.95967 14.6663 3.49967 14.6663H2.16634C1.70634 14.6663 1.33301 14.293 1.33301 13.833V2.83301C1.33301 2.43518 1.49104 2.05365 1.77235 1.77235C2.05365 1.49104 2.43518 1.33301 2.83301 1.33301H2.86301C3.49901 1.33301 4.04101 1.73701 4.24567 2.30301H13.1517C13.3507 2.30283 13.5478 2.34191 13.7317 2.41801C13.9156 2.49411 14.0826 2.60573 14.2233 2.74649C14.364 2.88724 14.4756 3.05437 14.5516 3.23829C14.6276 3.42222 14.6666 3.61933 14.6663 3.81834ZM4.33301 5.33301V10.1663C4.33301 10.5642 4.49104 10.9457 4.77235 11.227C5.05365 11.5083 5.43518 11.6663 5.83301 11.6663H11.4997C11.8975 11.6663 12.279 11.5083 12.5603 11.227C12.8416 10.9457 12.9997 10.5642 12.9997 10.1663V5.33301H4.33301ZM6.33301 8.30634C6.333 8.21005 6.35386 8.11489 6.39414 8.02743C6.43441 7.93997 6.49316 7.86227 6.56634 7.79967L8.44967 6.18634C8.51005 6.1347 8.58689 6.10632 8.66634 6.10632C8.74579 6.10632 8.82263 6.1347 8.88301 6.18634L10.767 7.79967C10.8401 7.86233 10.8987 7.94006 10.9389 8.02752C10.979 8.11498 10.9998 8.2101 10.9997 8.30634V10.333C10.9997 10.4214 10.9646 10.5062 10.902 10.5687C10.8395 10.6312 10.7547 10.6663 10.6663 10.6663H9.49967C9.45547 10.6663 9.41308 10.6488 9.38182 10.6175C9.35057 10.5863 9.33301 10.5439 9.33301 10.4997V9.66634C9.33301 9.57794 9.29789 9.49315 9.23538 9.43064C9.17286 9.36813 9.08808 9.33301 8.99967 9.33301H8.33301C8.2446 9.33301 8.15982 9.36813 8.09731 9.43064C8.03479 9.49315 7.99967 9.57794 7.99967 9.66634V10.4997C7.99967 10.5439 7.98212 10.5863 7.95086 10.6175C7.9196 10.6488 7.87721 10.6663 7.83301 10.6663H6.66634C6.57794 10.6663 6.49315 10.6312 6.43064 10.5687C6.36813 10.5062 6.33301 10.4214 6.33301 10.333V8.30634Z" fill="#FFBF3C"/>
</svg>
