<svg width="24" height="24" viewBox="0 0 24 24" fill="none" xmlns="http://www.w3.org/2000/svg">
<path d="M22.7782 19.5984C22.715 19.473 22.715 19.3261 22.7782 19.2008C24.1108 16.8494 24.3668 14.0384 23.4798 11.4844C22.5918 8.93151 20.6475 6.88443 18.1441 5.86737C17.1618 3.45599 15.2271 1.55909 12.7976 0.626535C10.3681 -0.306922 7.66124 -0.193337 5.31847 0.940541C2.97569 2.07442 1.20607 4.12669 0.429438 6.61212C-0.34719 9.09638 -0.0622624 11.7918 1.21786 14.0596C1.27892 14.1807 1.27892 14.3254 1.21786 14.4465L0.189484 16.6511C-0.0793937 17.2288 0.0405833 17.9136 0.491579 18.3637C0.941486 18.8149 1.626 18.936 2.2034 18.667L4.40691 17.6382C4.52796 17.576 4.67258 17.576 4.79471 17.6382C5.14071 17.8343 5.49957 18.0068 5.86808 18.1569C6.51297 19.7109 7.55955 21.0656 8.89973 22.0827C10.2399 23.0997 11.8263 23.7417 13.4953 23.9432C13.8488 23.9818 14.2023 24 14.558 24C16.1852 24.0032 17.7857 23.5831 19.2018 22.7804C19.3229 22.7193 19.4664 22.7193 19.5886 22.7804L21.7846 23.8092H21.7835C22.3609 24.0847 23.0486 23.9668 23.5017 23.5156C23.9549 23.0644 24.0759 22.3774 23.8038 21.7987L22.7782 19.5984ZM4.61023 15.8775C4.28993 15.8775 3.97286 15.9482 3.68255 16.0843L1.97074 16.8838L2.76988 15.1691C3.06553 14.5443 3.04304 13.8155 2.70882 13.211C1.47691 11.0226 1.38479 8.37325 2.46244 6.10456C3.53902 3.8368 5.65149 2.2347 8.1248 1.80807C10.5982 1.38152 13.1241 2.18532 14.8981 3.96117C16.6709 5.7381 17.4712 8.26616 17.0427 10.7409C16.6131 13.2144 15.0084 15.3257 12.7405 16.4007C10.4727 17.4756 7.8235 17.3802 5.63841 16.1456C5.32455 15.9688 4.96997 15.8766 4.60897 15.8777L4.61023 15.8775ZM21.2891 18.3531C20.9527 18.9587 20.9281 19.6885 21.2227 20.3155L22.0186 22.0216L20.3046 21.2211C19.6812 20.9306 18.9559 20.9563 18.355 21.2907C16.6485 22.2595 14.6358 22.5361 12.7299 22.0656C10.8253 21.5951 9.17339 20.4108 8.11293 18.7593C8.90349 18.8739 9.70584 18.8868 10.4996 18.7957C12.5896 18.5492 14.5382 17.6136 16.0366 16.1357C17.5353 14.6578 18.5005 12.7232 18.7779 10.6356C18.8797 9.79641 18.87 8.94546 18.7479 8.10846C20.403 9.16519 21.5887 10.8178 22.0612 12.7232C22.5336 14.6298 22.2585 16.6447 21.2891 18.3531ZM4.28444 5.99511C4.28444 5.5214 4.66793 5.13774 5.14142 5.13774H13.7112C14.1847 5.13774 14.5682 5.5214 14.5682 5.99511C14.5682 6.46883 14.1847 6.85249 13.7112 6.85249H5.14142C4.66793 6.85249 4.28444 6.46883 4.28444 5.99511ZM4.28444 9.42462C4.28444 8.95091 4.66793 8.56725 5.14142 8.56725H13.7112C14.1847 8.56725 14.5682 8.95091 14.5682 9.42462C14.5682 9.89833 14.1847 10.282 13.7112 10.282H5.14142C4.66793 10.282 4.28444 9.89833 4.28444 9.42462ZM8.56933 13.7115H5.14142C4.66793 13.7115 4.28444 13.3278 4.28444 12.8541C4.28444 12.3804 4.66793 11.9968 5.14142 11.9968H8.56933C9.04283 11.9968 9.42631 12.3804 9.42631 12.8541C9.42631 13.3278 9.04283 13.7115 8.56933 13.7115Z" fill="#072F6C"/>
</svg>
